<svg width="1300" height="244" viewBox="0 0 1300 244" fill="none" xmlns="http://www.w3.org/2000/svg">
<g clip-path="url(#clip0_67_1854)">
<g opacity="0.3">
<path d="M1184.26 93.8627H1282.85V151.965H1184.26V93.8627ZM1189.31 183.409H1299.92V244.246H1116V5H1295.81V65.8368H1189.31V183.409Z" fill="#1C3A4B"/>
<path d="M850 244.246V5H965.18C987.509 5 1006.76 8.64565 1022.94 15.9369C1039.35 23.2282 1051.99 33.7095 1060.88 47.3807C1069.76 60.824 1074.21 76.7737 1074.21 95.2298C1074.21 113.686 1069.76 129.636 1060.88 143.079C1051.99 156.522 1039.35 167.003 1022.94 174.523C1006.76 181.814 987.509 185.46 965.18 185.46H894.773L930.66 150.94V244.246H850ZM930.66 159.826L894.773 123.256H960.053C971.218 123.256 979.421 120.749 984.661 115.737C990.13 110.724 992.864 103.888 992.864 95.2298C992.864 86.5714 990.13 79.7358 984.661 74.723C979.421 69.7103 971.218 67.2039 960.053 67.2039H894.773L930.66 30.6335V159.826Z" fill="#1C3A4B"/>
<path d="M674.003 250.183C654.635 250.183 636.635 247.107 620.002 240.955C603.596 234.802 589.356 226.144 577.279 214.979C565.203 203.587 555.747 190.257 548.912 174.991C542.304 159.725 539 143.092 539 125.091C539 106.863 542.304 90.2298 548.912 75.1915C555.747 59.9253 565.203 46.7099 577.279 35.5451C589.356 24.1524 603.596 15.3801 620.002 9.22805C636.635 3.07602 654.635 0 674.003 0C693.598 0 711.599 3.07602 728.004 9.22805C744.409 15.3801 758.65 24.1524 770.726 35.5451C782.803 46.7099 792.145 59.9253 798.752 75.1915C805.588 90.2298 809.006 106.863 809.006 125.091C809.006 143.092 805.588 159.725 798.752 174.991C792.145 190.257 782.803 203.587 770.726 214.979C758.65 226.144 744.409 234.802 728.004 240.955C711.599 247.107 693.598 250.183 674.003 250.183ZM674.003 184.903C681.522 184.903 688.472 183.536 694.851 180.801C701.459 178.067 707.156 174.194 711.94 169.181C716.953 163.94 720.827 157.674 723.561 150.383C726.295 142.864 727.662 134.433 727.662 125.091C727.662 115.749 726.295 107.433 723.561 100.141C720.827 92.6222 716.953 86.3563 711.94 81.3435C707.156 76.1029 701.459 72.1155 694.851 69.3812C688.472 66.647 681.522 65.2799 674.003 65.2799C666.484 65.2799 659.42 66.647 652.813 69.3812C646.433 72.1155 640.736 76.1029 635.724 81.3435C630.939 86.3563 627.179 92.6222 624.445 100.141C621.711 107.433 620.343 115.749 620.343 125.091C620.343 134.433 621.711 142.864 624.445 150.383C627.179 157.674 630.939 163.94 635.724 169.181C640.736 174.194 646.433 178.067 652.813 180.801C659.42 183.536 666.484 184.903 674.003 184.903Z" fill="#1C3A4B"/>
<path d="M390.294 250.183C371.154 250.183 353.382 247.22 336.976 241.296C320.799 235.144 306.672 226.486 294.596 215.321C282.747 204.156 273.519 190.941 266.912 175.675C260.304 160.408 257 143.547 257 125.091C257 106.635 260.304 89.7741 266.912 74.5079C273.519 59.2418 282.747 46.0263 294.596 34.8615C306.672 23.6967 320.799 15.1522 336.976 9.22805C353.382 3.07602 371.154 0 390.294 0C413.763 0 434.497 4.10135 452.498 12.3041C470.726 20.5068 485.764 32.3551 497.613 47.8491L446.688 93.3058C439.624 84.4195 431.763 77.5839 423.105 72.799C414.674 67.7863 405.104 65.2799 394.395 65.2799C385.965 65.2799 378.332 66.647 371.496 69.3812C364.661 72.1155 358.736 76.1029 353.724 81.3435C348.939 86.5841 345.179 92.964 342.445 100.483C339.711 107.774 338.344 115.977 338.344 125.091C338.344 134.205 339.711 142.522 342.445 150.041C345.179 157.332 348.939 163.598 353.724 168.839C358.736 174.08 364.661 178.067 371.496 180.801C378.332 183.536 385.965 184.903 394.395 184.903C405.104 184.903 414.674 182.51 423.105 177.725C431.763 172.713 439.624 165.763 446.688 156.877L497.613 202.333C485.764 217.6 470.726 229.448 452.498 237.879C434.497 246.081 413.763 250.183 390.294 250.183Z" fill="#1C3A4B"/>
<path d="M104.243 250.183C84.1917 250.183 64.8242 247.904 46.1402 243.347C27.4563 238.79 12.0762 232.866 0 225.574L25.9752 166.788C37.3679 173.396 50.0137 178.751 63.9128 182.852C78.0397 186.726 91.7108 188.662 104.926 188.662C112.673 188.662 118.711 188.207 123.041 187.295C127.598 186.156 130.902 184.675 132.952 182.852C135.003 180.801 136.028 178.409 136.028 175.675C136.028 171.345 133.636 167.928 128.851 165.421C124.066 162.915 117.686 160.864 109.711 159.269C101.964 157.446 93.4197 155.624 84.0778 153.801C74.7358 151.75 65.2799 149.13 55.7101 145.94C46.3681 142.75 37.7097 138.535 29.7348 133.294C21.9878 128.053 15.7219 121.218 10.9369 112.787C6.15203 104.129 3.75957 93.4197 3.75957 80.66C3.75957 65.8495 7.86093 52.4062 16.0636 40.33C24.4942 28.0259 36.9122 18.2282 53.3176 10.9369C69.9509 3.64565 90.5716 0 115.18 0C131.357 0 147.307 1.7089 163.029 5.12669C178.751 8.54448 192.878 13.7851 205.409 20.8485L181.143 79.2928C169.295 73.3686 157.788 68.9255 146.623 65.9634C135.686 63.0014 124.977 61.5203 114.496 61.5203C106.749 61.5203 100.597 62.2039 96.04 63.571C91.483 64.9381 88.1791 66.7609 86.1284 69.0395C84.3056 71.318 83.3942 73.8244 83.3942 76.5586C83.3942 80.66 85.7867 83.9638 90.5716 86.4702C95.3565 88.7487 101.622 90.6855 109.369 92.2805C117.344 93.8754 126.003 95.5843 135.345 97.4071C144.915 99.23 154.37 101.736 163.712 104.926C173.054 108.116 181.599 112.332 189.346 117.572C197.321 122.813 203.701 129.648 208.485 138.079C213.27 146.509 215.663 156.991 215.663 169.523C215.663 184.105 211.448 197.549 203.017 209.853C194.814 221.929 182.51 231.726 166.105 239.246C149.699 246.537 129.079 250.183 104.243 250.183Z" fill="#1C3A4B"/>
</g>
</g>
<defs>
<clipPath id="clip0_67_1854">
<rect width="1300" height="244" fill="white"/>
</clipPath>
</defs>
</svg>
