<svg width="80" height="80" viewBox="0 0 80 80" fill="none" xmlns="http://www.w3.org/2000/svg">
<g clip-path="url(#clip0_67_2004)">
<path d="M39.9999 64.516C52.0951 64.516 61.9354 54.6758 61.9354 42.5805C61.9354 30.4852 52.0951 20.645 39.9999 20.645C27.9048 20.645 18.0645 30.4852 18.0645 42.5805C18.0645 54.6758 27.9048 64.516 39.9999 64.516ZM39.9999 23.2257C44.6107 23.2257 48.423 26.6992 48.964 31.1665C48.5795 31.0381 48.1688 30.9676 47.7419 30.9676H41.2903C39.8674 30.9676 38.7096 29.8099 38.7096 28.387V25.8063H36.129V28.387C36.129 29.0315 36.2488 29.6482 36.4654 30.2174L34.5901 30.9676H32.258C31.8311 30.9676 31.4204 31.0381 31.0359 31.1665C31.5769 26.6992 35.3891 23.2257 39.9999 23.2257ZM57.1135 33.5482C57.5515 34.375 57.9314 35.237 58.2477 36.1289H51.3909C51.5341 35.725 51.6128 35.291 51.6128 34.8386V33.5482H57.1135ZM49.8674 46.4515C48.1885 45.0944 46.127 44.1926 43.8709 43.942V43.8708H59.3107C59.2527 44.7481 59.1372 45.6097 58.9656 46.4515H49.8674ZM32.258 36.1289C31.5465 36.1289 30.9677 35.55 30.9677 34.8386C30.9677 34.1271 31.5465 33.5482 32.258 33.5482H33.5483V36.1289H32.258ZM37.4193 46.4515H38.7096V41.7831L37.9964 41.4265C36.8446 40.8505 36.129 39.6928 36.129 38.4049V33.1315L38.0186 32.3755C38.9098 33.1078 40.0496 33.5481 41.2903 33.5481H43.8709V38.4047C43.8709 39.6924 43.1553 40.8503 42.0035 41.4261L41.2903 41.7831V46.4515H42.5806C42.9345 46.4515 43.283 46.4742 43.6265 46.5139C43.1153 48.5658 41.8249 50.3271 39.9999 51.4308C38.1749 50.327 36.8846 48.5658 36.3733 46.5139C36.7169 46.4742 37.0654 46.4515 37.4193 46.4515ZM47.7419 36.1289H46.4515V33.5482H47.7419C48.4533 33.5482 49.0322 34.1271 49.0322 34.8386C49.0322 35.55 48.4533 36.1289 47.7419 36.1289ZM45.7104 41.2902C46.1406 40.5111 46.3962 39.6331 46.4424 38.7095H58.9657C59.1374 39.5513 59.2528 40.4129 59.3109 41.2902H45.7104ZM28.387 34.8386C28.387 35.291 28.4657 35.725 28.609 36.1289H21.7522C22.0685 35.237 22.4483 34.375 22.8864 33.5482H28.387V34.8386ZM33.5577 38.7095C33.6038 39.6331 33.8595 40.5111 34.2896 41.2902H20.6891C20.7472 40.4129 20.8627 39.5513 21.0343 38.7095H33.5577ZM36.129 43.8708V43.942C33.8728 44.1926 31.8114 45.0942 30.1325 46.4515H21.0343C20.8627 45.6097 20.7472 44.7481 20.6891 43.8708H36.129ZM21.7522 49.0321H27.7701C26.5312 50.8787 25.8064 53.0979 25.8064 55.4837V55.7242C24.0332 53.8107 22.6412 51.5395 21.7522 49.0321ZM33.5483 60.8282V54.1934H30.9677V59.694C30.0628 59.2145 29.1999 58.6661 28.387 58.0545V55.4837C28.387 51.7605 30.6519 48.5568 33.8761 47.1763C34.6269 50.15 36.6214 52.6565 39.4228 54.0571L39.9999 54.3457L40.577 54.0571C43.3785 52.6563 45.373 50.15 46.1238 47.1763C49.348 48.5568 51.6128 51.7605 51.6128 55.4837V58.0545C50.7999 58.6661 49.937 59.2145 49.0322 59.694V54.1934H46.4515V60.8282C44.4325 61.5442 42.2612 61.9353 39.9999 61.9353C37.7386 61.9353 35.5674 61.5442 33.5483 60.8282ZM54.1935 55.7242V55.4837C54.1935 53.0979 53.4686 50.8787 52.2298 49.0321H58.2477C57.3586 51.5395 55.9667 53.8107 54.1935 55.7242ZM55.474 30.9676H51.5395C51.3291 29.0745 50.6632 27.3173 49.6522 25.8089C51.9232 27.1211 53.9043 28.8811 55.474 30.9676ZM30.3477 25.8089C29.3367 27.3171 28.6707 29.0745 28.4604 30.9676H24.5259C26.0956 28.8811 28.0767 27.1211 30.3477 25.8089Z" fill="#333333"/>
<path d="M39.9999 15.4839C23.0325 15.4839 7.56992 25.4818 0.606855 40.9549L0.113468 42.0511C-0.0378226 42.3878 -0.0378226 42.7734 0.113468 43.11L0.607016 44.2065C7.56992 59.6795 23.0325 69.6774 39.9999 69.6774C56.9675 69.6774 72.4301 59.6795 79.393 44.2065L79.8864 43.1102C80.0377 42.7736 80.0377 42.3879 79.8864 42.0513L79.3928 40.955C72.4301 25.4818 56.9675 15.4839 39.9999 15.4839ZM64.516 42.5807C64.516 56.0989 53.5181 67.0968 39.9999 67.0968C26.4817 67.0968 15.4838 56.0989 15.4838 42.5807C15.4838 29.0624 26.4817 18.0645 39.9999 18.0645C53.5181 18.0645 64.516 29.0624 64.516 42.5807ZM2.96024 43.1476L2.70508 42.5807L2.96008 42.0137C6.91976 33.2147 13.8035 26.2999 22.1548 22.2078C16.4877 27.1779 12.9031 34.4681 12.9031 42.5807C12.9031 50.6932 16.4877 57.9834 22.1549 62.9536C13.8036 58.8615 6.91992 51.9466 2.96024 43.1476ZM77.2948 42.5807L77.0398 43.1476C73.0801 51.9468 66.1964 58.8616 57.8449 62.9537C63.5122 57.9834 67.0967 50.6932 67.0967 42.5807C67.0967 34.4681 63.5122 27.1779 57.8448 22.2076C66.1962 26.2997 73.0799 33.2145 77.0394 42.0137L77.2948 42.5807Z" fill="#333333"/>
<path d="M39.9999 12.9034C54.1696 12.9034 67.7749 19.6379 76.3942 30.9184L78.4447 29.3516C73.986 23.5163 68.147 18.6947 61.5588 15.4079C54.89 12.0811 47.4352 10.3228 39.9999 10.3228C35.0457 10.3228 30.1391 11.0826 25.416 12.5811L26.1967 15.041C30.6668 13.6226 35.311 12.9034 39.9999 12.9034Z" fill="#333333"/>
<path d="M23.6863 15.9181L22.7646 13.5078C21.8757 13.8477 20.9836 14.2196 20.1133 14.613L21.1762 16.9646C22.0004 16.5922 22.8451 16.2401 23.6863 15.9181Z" fill="#333333"/>
<path d="M18.6667 18.1926L17.4627 15.9102C16.5677 16.3823 15.6759 16.889 14.8115 17.4166L16.1564 19.6192C16.9747 19.1197 17.8194 18.6395 18.6667 18.1926Z" fill="#333333"/>
<path d="M1.55566 29.3517L3.60615 30.9185C6.44018 27.2092 9.81841 23.9619 13.6463 21.2669L12.1607 19.1567C8.11744 22.0032 4.54937 25.4334 1.55566 29.3517Z" fill="#333333"/>
<path d="M2.58065 67.0967H0V79.9999H12.9032V77.4193H2.58065V67.0967Z" fill="#333333"/>
<path d="M77.4193 77.4193H67.0967V79.9999H79.9999V67.0967H77.4193V77.4193Z" fill="#333333"/>
<path d="M41.2906 72.2583H38.71V80.0002H41.2906V72.2583Z" fill="#333333"/>
<path d="M2.58065 2.58065H12.9032V0H0V12.9032H2.58065V2.58065Z" fill="#333333"/>
<path d="M67.0967 0V2.58065H77.4193V12.9032H79.9999V0H67.0967Z" fill="#333333"/>
<path d="M41.2906 0H38.71V7.74194H41.2906V0Z" fill="#333333"/>
</g>
<defs>
<clipPath id="clip0_67_2004">
<rect width="80" height="80" fill="white"/>
</clipPath>
</defs>
</svg>
