<svg width="80" height="80" viewBox="0 0 80 80" fill="none" xmlns="http://www.w3.org/2000/svg">
<path d="M42.6363 30C38.15 30 34.015 32.2037 31.4875 35.825C30.7 35.3062 29.7613 35 28.75 35C25.9925 35 23.75 37.2425 23.75 40C23.75 42.7575 25.9925 45 28.75 45H33.75V46.25C33.75 46.94 33.1888 47.5 32.5 47.5H31.25V50H32.5C34.5675 50 36.25 48.3175 36.25 46.25V45H41.25V50H43.75V45H48.75V46.25C48.75 48.3175 50.4325 50 52.5 50H53.75V47.5H52.5C51.8113 47.5 51.25 46.94 51.25 46.25V45H56.25V43.615C56.25 36.1075 50.1425 30 42.6363 30ZM26.25 40C26.25 38.6213 27.3712 37.5 28.75 37.5C30.1287 37.5 31.25 38.6213 31.25 40C31.25 41.3787 30.1287 42.5 28.75 42.5C27.3712 42.5 26.25 41.3787 26.25 40ZM33.055 42.5C33.485 41.7612 33.75 40.915 33.75 40C33.75 39.1975 33.5425 38.45 33.205 37.7775C35.2237 34.5163 38.765 32.5 42.6363 32.5C48.3888 32.5 53.1338 36.8925 53.695 42.5H33.055Z" fill="#333333"/>
<path d="M41.25 35H38.75V37.5H41.25V35Z" fill="#333333"/>
<path d="M47.5 38.75H45V41.25H47.5V38.75Z" fill="#333333"/>
<path d="M46.25 35H43.75V37.5H46.25V35Z" fill="#333333"/>
<path d="M38.75 38.75H36.25V41.25H38.75V38.75Z" fill="#333333"/>
<path d="M40 1.25C18.6337 1.25 1.25 18.6325 1.25 40C1.25 61.3675 18.6337 78.75 40 78.75C61.3662 78.75 78.75 61.3675 78.75 40C78.75 18.6325 61.3662 1.25 40 1.25ZM40 76.25C20.0112 76.25 3.75 59.9875 3.75 40C3.75 20.0125 20.0112 3.75 40 3.75C59.9888 3.75 76.25 20.0125 76.25 40C76.25 59.9875 59.9888 76.25 40 76.25Z" fill="#333333"/>
<path d="M40 6.25C21.39 6.25 6.25 21.39 6.25 40C6.25 58.61 21.39 73.75 40 73.75C58.61 73.75 73.75 58.61 73.75 40C73.75 21.39 58.61 6.25 40 6.25ZM71.2375 39.4875L61.25 42.1625V28.75C61.25 26.6825 59.5675 25 57.5 25H54.4637L57.3962 14.0538C65.6125 19.58 71.065 28.9025 71.2375 39.4875ZM22.5 52.5C21.8112 52.5 21.25 51.94 21.25 51.25V28.75C21.25 28.06 21.8112 27.5 22.5 27.5H57.5C58.1888 27.5 58.75 28.06 58.75 28.75V51.25C58.75 51.94 58.1888 52.5 57.5 52.5H22.5ZM55.1725 12.6937L51.8763 25H39.2675L26.2263 11.9588C30.3838 9.9075 35.0588 8.75 40 8.75C45.5037 8.75 50.6763 10.185 55.1725 12.6937ZM23.9375 13.2062L35.7325 25H22.5C20.4325 25 18.75 26.6825 18.75 28.75V35.2487L8.8275 37.9075C9.525 27.4237 15.41 18.3375 23.9375 13.2062ZM8.7625 40.5137L18.75 37.8375V51.25C18.75 53.3175 20.4325 55 22.5 55H25.5363L22.6038 65.9463C14.3875 60.42 8.935 51.0975 8.7625 40.5137ZM24.8263 67.3063L28.1238 55H40.7325L53.7738 68.0412C49.6163 70.0925 44.9412 71.25 40 71.25C34.4963 71.25 29.3225 69.815 24.8263 67.3063ZM56.0625 66.7938L44.2675 55H57.5C59.5675 55 61.25 53.3175 61.25 51.25V44.7512L71.1725 42.0925C70.475 52.5775 64.59 61.6625 56.0625 66.7938Z" fill="#333333"/>
<path d="M32.8395 14.7374C33.5995 14.5224 34.3795 14.3399 35.1607 14.1936L34.702 11.7349C33.8457 11.8949 32.9907 12.0961 32.1582 12.3324L32.8395 14.7374Z" fill="#333333"/>
<path d="M45.1012 11.7014C44.2499 11.5489 43.3774 11.4326 42.5087 11.3589L42.2949 13.8489C43.0862 13.9176 43.8824 14.0226 44.6574 14.1626L45.1012 11.7014Z" fill="#333333"/>
<path d="M50.1338 13.0863C49.3151 12.7788 48.4801 12.5076 47.6488 12.2788L46.9863 14.6888C47.7438 14.8976 48.5063 15.1451 49.2551 15.4276L50.1338 13.0863Z" fill="#333333"/>
<path d="M39.9098 13.75L39.8985 11.25C39.0235 11.2538 38.146 11.2962 37.291 11.3762L37.5248 13.8663C38.306 13.7925 39.1085 13.7538 39.9098 13.75Z" fill="#333333"/>
<path d="M40.0006 66.2502C36.1781 66.2502 32.4943 65.4465 29.0506 63.8652L28.0068 66.1352C31.7806 67.8702 35.8156 68.7502 40.0006 68.7502C40.8731 68.7502 41.7518 68.7115 42.6131 68.6327L42.3881 66.1427C41.6018 66.214 40.7981 66.2502 40.0006 66.2502Z" fill="#333333"/>
<path d="M47.1607 65.2627C46.3844 65.4827 45.5807 65.6689 44.7744 65.8177L45.2269 68.2764C46.1107 68.1139 46.9894 67.9089 47.8407 67.6677L47.1607 65.2627Z" fill="#333333"/>
</svg>
