<svg width="80" height="80" viewBox="0 0 80 80" fill="none" xmlns="http://www.w3.org/2000/svg">
<path d="M66.0994 38.1677L69.1484 30.8516L66.7664 29.8581L63.5355 37.6129C59.3716 36.7858 54.8297 36.2219 50.4155 35.8955L53.9768 30.3548H47.7419V11H45.1613V32.9355H49.249L40 47.3226L30.751 32.9355H34.8387V11H32.2581V30.3548H26.0232L29.5845 35.8955C25.1703 36.2232 20.6271 36.7858 16.4645 37.6129L13.2335 29.8581L10.8516 30.8516L13.9006 38.1677C5.98194 40.0335 0 42.9561 0 47.129V52.2903C0 54.2684 1.42839 56.0065 3.87097 57.4955V60.0323C3.87097 66.6594 25.4774 69.0645 40 69.0645C54.5226 69.0645 76.129 66.6594 76.129 60.0323V57.4955C78.5716 56.0052 80 54.2684 80 52.2903V47.129C80 42.9561 74.0181 40.0335 66.0994 38.1677ZM77.4193 47.129C77.4193 47.3561 77.3652 47.5897 77.2632 47.8258C74.6065 45.8387 70.0168 44.1484 64.1226 42.9123L65.0826 40.609C72.9394 42.44 77.4193 44.9652 77.4193 47.129ZM62.5148 40.0619L61.5368 42.4116C57.2581 41.6568 52.4103 41.129 47.2168 40.871L48.8194 38.3768C54 38.7032 58.6013 39.2968 62.5148 40.0619ZM45.6026 43.3806C51.0065 43.5923 56.0787 44.0994 60.5213 44.8465L58.1639 50.5032L60.5458 51.4968L63.1174 45.3252C68.7084 46.4452 73.0568 47.9613 75.4852 49.7084C70.8632 52.9239 58.1858 56.1613 40 56.1613C21.8142 56.1613 9.13677 52.9239 4.51613 49.7084C6.94452 47.9613 11.2916 46.4452 16.8839 45.3252L19.4555 51.4968L21.8374 50.5032L19.48 44.8465C23.9226 44.1006 28.9948 43.5923 34.3987 43.3806L40 52.0968L45.6026 43.3806ZM31.1806 38.3768L32.7832 40.871C27.5897 41.129 22.7419 41.6568 18.4632 42.4116L17.4852 40.0619C21.3987 39.2968 26 38.7032 31.1806 38.3768ZM14.9187 40.609L15.8787 42.9123C9.98323 44.1484 5.39355 45.8387 2.73677 47.8258C2.63484 47.5897 2.58065 47.3561 2.58065 47.129C2.58065 44.9652 7.06065 42.44 14.9187 40.609ZM6.45161 60.0323V58.8271C7.96516 59.489 9.70323 60.0865 11.6129 60.6219V63.1716C8.20645 62.071 6.45161 60.9058 6.45161 60.0323ZM34.8387 63.8064V66.3935C33.0348 66.3368 31.3135 66.2516 29.6774 66.1406V63.5187C31.3819 63.6465 33.1071 63.7419 34.8387 63.8064ZM27.0968 65.9368C25.2606 65.7742 23.5316 65.5832 21.9355 65.3639V62.7006C23.6129 62.9355 25.3381 63.1355 27.0968 63.3019V65.9368ZM19.3548 64.9729C17.4129 64.6465 15.7019 64.2852 14.1935 63.9032V61.2852C15.8245 61.6671 17.5548 62.0052 19.3548 62.3045V64.9729ZM37.4194 66.4529V63.8761C38.28 63.8929 39.1419 63.9032 40 63.9032C40.8581 63.9032 41.72 63.8929 42.5806 63.8761V66.4529C41.7277 66.4658 40.8865 66.4839 40 66.4839C39.1135 66.4839 38.2723 66.4658 37.4194 66.4529ZM65.8064 61.2852V63.9032C64.2981 64.2852 62.5871 64.6465 60.6452 64.9729V62.3045C62.4452 62.0052 64.1755 61.6671 65.8064 61.2852ZM58.0645 65.3639C56.4684 65.5832 54.7394 65.7742 52.9032 65.9368V63.3019C54.6619 63.1355 56.3871 62.9355 58.0645 62.7006V65.3639ZM50.3226 66.1406C48.6865 66.2516 46.9652 66.3368 45.1613 66.3935V63.8064C46.8929 63.7432 48.6181 63.6465 50.3226 63.5187V66.1406ZM73.5484 60.0323C73.5484 60.9058 71.7935 62.071 68.3871 63.1716V60.6219C70.2968 60.0865 72.0348 59.489 73.5484 58.8271V60.0323ZM40 61.3226C16.8168 61.3226 2.58065 56.0619 2.58065 52.2903V51.4516C8.69548 56.2129 24.7213 58.7419 40 58.7419C55.2787 58.7419 71.3045 56.2129 77.4193 51.4516V52.2903C77.4193 56.0619 63.1832 61.3226 40 61.3226Z" fill="#333333"/>
<path d="M11.0831 24.6979L8.70117 25.6909L9.77712 28.2717L12.1591 27.2787L11.0831 24.6979Z" fill="#333333"/>
<path d="M8.93493 19.5365L6.55273 20.5293L7.62841 23.1104L10.0106 22.1176L8.93493 19.5365Z" fill="#333333"/>
<path d="M68.9148 24.696L67.8389 27.2769L70.2208 28.2699L71.2968 25.6891L68.9148 24.696Z" fill="#333333"/>
<path d="M71.0662 19.5344L69.9902 22.1152L72.3722 23.1083L73.4481 20.5274L71.0662 19.5344Z" fill="#333333"/>
<path d="M19.3177 17.479L16.8047 18.0713L20.6817 34.5207L23.1947 33.9284L19.3177 17.479Z" fill="#333333"/>
<path d="M18.0308 11.9949L15.5176 12.5864L16.1251 15.1675L18.6383 14.576L18.0308 11.9949Z" fill="#333333"/>
<path d="M60.6817 17.4808L56.8047 33.9302L59.3177 34.5225L63.1947 18.0731L60.6817 17.4808Z" fill="#333333"/>
<path d="M61.9686 11.9958L61.3604 14.5767L63.8733 15.169L64.4816 12.5881L61.9686 11.9958Z" fill="#333333"/>
</svg>
